<svg xmlns="http://www.w3.org/2000/svg" width="16" height="15.901" viewBox="0 0 16 15.901">
  <path id="layers_1" d="M646.89,559.543,641.4,555.9l-.954-.63a1,1,0,1,1,1.106-1.654l.447.3,6,3.976,6-3.976.447-.3a.995.995,0,1,1,1.106,1.654L654,556.3l-4.891,3.241a2.01,2.01,0,0,1-2.219,0Zm0-3.972-6-3.976a1.981,1.981,0,0,1,0-3.308l6-3.976a2.008,2.008,0,0,1,2.218,0l6,3.976a1.981,1.981,0,0,1,0,3.308l-6,3.976a2.008,2.008,0,0,1-2.218,0ZM642,549.941l6,3.975,6-3.975-6-3.977Z" transform="translate(-640 -543.976)" fill="#f2f9ff"/>
</svg>
